<svg width="1920" height="375" viewBox="0 0 1920 375" fill="none" xmlns="http://www.w3.org/2000/svg">
<path d="M0 234.832L45.7 210.332C91.3 185.832 182.7 136.832 274.2 98.5322C365.7 60.1322 457.3 32.5322 548.8 15.1322C640.3 -2.16783 731.7 -9.16781 823 19.0322C914.3 47.1322 1005.7 110.532 1097 121.132C1188.3 131.832 1279.7 89.8322 1371.2 60.1322C1462.7 30.5322 1554.3 13.1322 1645.8 26.0322C1737.3 38.8322 1828.7 81.8322 1874.3 103.332L1920 124.832V374.832H1874.3C1828.7 374.832 1737.3 374.832 1645.8 374.832C1554.3 374.832 1462.7 374.832 1371.2 374.832C1279.7 374.832 1188.3 374.832 1097 374.832C1005.7 374.832 914.3 374.832 823 374.832C731.7 374.832 640.3 374.832 548.8 374.832C457.3 374.832 365.7 374.832 274.2 374.832C182.7 374.832 91.3 374.832 45.7 374.832H0V234.832Z" fill="#0066FF"/>
</svg>
